<svg id="_1" data-name="1" xmlns="http://www.w3.org/2000/svg" viewBox="0 0 396.08 45.55"><defs><style>.cls-1{fill:#1a171b;}</style></defs><title>Artboard 30</title><path class="cls-1" d="M13.42,44.61a69.09,69.09,0,0,1-7.66.44,15.17,15.17,0,0,1-4.7-.44A1.45,1.45,0,0,1,0,43.24V3.57A2.37,2.37,0,0,1,1.63,1.25,18.06,18.06,0,0,1,7.76.56H31q1.32,0,1.32,4.73a32.43,32.43,0,0,1-.6,7.19c-.39,1.65-.9,2.48-1.53,2.48l-12.7-.63v4.25c5.54-.25,9.26-.37,11.14-.37a1.29,1.29,0,0,1,1.28,1,14,14,0,0,1,.34,3.85,23.5,23.5,0,0,1-.62,5.44c-.42,1.73-1,2.6-1.76,2.6l-10.38-.38V43.24C17.46,43.86,16.11,44.32,13.42,44.61Z"/><path class="cls-1" d="M71.93,41.08q-5.16,4.47-15,4.47t-15-4.47q-5.25-4.47-5.25-13.49v-23q0-1.56,3.53-2.82A24.77,24.77,0,0,1,48.43.56Q52.18.56,53.31,2a3.54,3.54,0,0,1,.81,1.94V22.59a50.47,50.47,0,0,0,.54,9.35c.35,1.53,1.11,2.29,2.28,2.29s1.91-.74,2.22-2.22a57.59,57.59,0,0,0,.47-9.48V4.63q0-1.56,3.54-2.82A24.5,24.5,0,0,1,71.33.56q3.94,0,5,1.44a3.7,3.7,0,0,1,.75,1.94V27.59Q77.09,36.61,71.93,41.08Z"/><path class="cls-1" d="M95.71,44.55a58.44,58.44,0,0,1-7.67.5,16.08,16.08,0,0,1-4.88-.44,1.46,1.46,0,0,1-1.07-1.37V4.82q0-1.56,3.6-2.88A23.62,23.62,0,0,1,93.86.63,18.21,18.21,0,0,1,96.3.75a3.71,3.71,0,0,1,3,2.69l6,16.15h.25V4.82q0-1.56,3.57-2.88A23.31,23.31,0,0,1,117.26.63q3.94,0,5,1.5A3.45,3.45,0,0,1,123,4.07V43.24c0,.54-1.28,1-3.85,1.31a64.69,64.69,0,0,1-8.45.5c-3.06,0-4.74-.39-5-1.19L99.87,28.47h-.32V43.24C99.55,43.78,98.27,44.22,95.71,44.55Z"/><path class="cls-1" d="M141.63,44.43a59.94,59.94,0,0,1-7.66.5,16.38,16.38,0,0,1-4.88-.44A1.46,1.46,0,0,1,128,43.11V4.76q0-1.63,3.54-2.88A24.29,24.29,0,0,1,139.72.63q3.83,0,4.95,1.5a3.3,3.3,0,0,1,.81,1.94V14.39h.5q0-.32,1.88-5.19Q151.43,0,153.05,0a30.58,30.58,0,0,1,8.64,1.81,13.56,13.56,0,0,1,4.63,2.54A4.78,4.78,0,0,1,168.26,8q0,1.24-2.54,4.85t-7.66,9.6l3,3.2q1.81,1.93,4.85,5.78c2,2.57,3,4.39,3,5.48s-1,2.34-2.95,3.78a29,29,0,0,1-6.25,3.51,15,15,0,0,1-4.95,1.34q-1.06,0-2.9-3.22a83.94,83.94,0,0,1-4.48-9.67L145.48,35v8.13C145.48,43.66,144.2,44.09,141.63,44.43Z"/><path class="cls-1" d="M196.54,44.55a57.28,57.28,0,0,1-7.6.5,18.25,18.25,0,0,1-4.91-.4,1.46,1.46,0,0,1-1.13-1.41V32.35Q170.51,7,170.51,4.82c0-.88,1.4-1.79,4.19-2.76A27.28,27.28,0,0,1,183.53.63c4,0,6.06,1.16,6.31,3.5L191.53,21h.69l1.19-16.39q.14-1.76,4.44-2.85a33.37,33.37,0,0,1,8.2-1.09q3.88,0,5.38,1.12a3.09,3.09,0,0,1,1.5,2.38q0,1.18-12.57,28.22V43.24C200.36,43.78,199.08,44.22,196.54,44.55Z"/><path class="cls-1" d="M247.35,45.05a11,11,0,0,1-3.94-.44,2.47,2.47,0,0,1-1.32-1.5L228.26,4.94q0-1.18,4.48-2.75a27.25,27.25,0,0,1,9-1.56q5.88,0,6.26,3.69l2.13,19.83H251l1.75-19.83q.32-3.69,8.45-3.69c2.09,0,3.48.28,4.19.84a3.05,3.05,0,0,1,1.19,2.22l2.07,20.46h.87l1.63-19.83q.18-1.82,4.29-2.76a36.62,36.62,0,0,1,8.13-.93q4,0,5.51,1.18a3.31,3.31,0,0,1,1.47,2.51L277.2,43.11c-.46,1.3-3.55,1.94-9.26,1.94a8.75,8.75,0,0,1-3.45-.44,2.32,2.32,0,0,1-1.19-1.5l-3.25-10.88h-.75L256,43.11C255.61,44.41,252.73,45.05,247.35,45.05Z"/><path class="cls-1" d="M300.94,44.36a20.14,20.14,0,0,1-6.41.69,30.09,30.09,0,0,1-7.73-.84c-2.06-.57-3.1-1.28-3.1-2.16s1.86-7.39,5.57-19.18S295.11,4.3,295.66,2.5q.3-.81,5-1.34A89.59,89.59,0,0,1,310.83.63q5.42,0,6,1.87,11.83,39.3,11.83,39.92a1.72,1.72,0,0,1-.75,1.26c-1.17.91-3.48,1.37-6.95,1.37q-11.07,0-11.32-2.63l-.44-4.06h-6l-.31,3.5A2.71,2.71,0,0,1,300.94,44.36Zm6.92-17.89-.94-11.26h-1.38l-1.06,11.26Z"/><path class="cls-1" d="M337,45.05a16.43,16.43,0,0,1-4.2-.34c-.71-.23-1.06-.62-1.06-1.16V4.63c0-.92,1.21-1.82,3.63-2.72A23.19,23.19,0,0,1,343.52.56c2.67,0,4.42.57,5.26,1.69a2.21,2.21,0,0,1,.44,1.25V31.22q7.63-.49,11.51-.5c.88,0,1.31,1.39,1.31,4.16a39.07,39.07,0,0,1-.56,7.17q-.56,3-1.5,3Z"/><path class="cls-1" d="M371.05,45.05a16.39,16.39,0,0,1-4.19-.34c-.71-.23-1.06-.62-1.06-1.16V4.63c0-.92,1.21-1.82,3.63-2.72A23.19,23.19,0,0,1,377.56.56c2.67,0,4.42.57,5.26,1.69a2.21,2.21,0,0,1,.44,1.25V31.22q7.62-.49,11.51-.5c.88,0,1.31,1.39,1.31,4.16a39.07,39.07,0,0,1-.56,7.17c-.37,2-.88,3-1.5,3Z"/></svg>